<svg width="40" height="40" viewBox="0 0 132 132" fill="none" xmlns="http://www.w3.org/2000/svg">
<path d="M1.78601 1.78894V0.78894H0.786011V1.78894H1.78601ZM1.78601 110.174H0.786011V111.174H1.78601V110.174ZM2.78601 110.174V111.174H3.78601V110.174H2.78601ZM2.78601 110.173V109.173H1.78601V110.173H2.78601ZM14.9085 110.173V111.173L14.9085 111.173L14.9085 110.173ZM15.9085 110.173L15.9085 111.173L16.9085 111.173L16.9085 110.173L15.9085 110.173ZM15.9085 27.5246L16.6176 26.8194L14.9085 25.1009L14.9085 27.5246L15.9085 27.5246ZM117.61 129.789L116.9 130.494L116.902 130.496L117.61 129.789ZM117.61 129.789L116.903 130.496L117.594 131.187L118.301 130.512L117.61 129.789ZM129.082 118.825L129.791 118.119L129.1 117.424L128.391 118.102L129.082 118.825ZM129.085 118.827L128.376 119.533L129.085 120.245L129.794 119.533L129.085 118.827ZM129.196 118.716L128.505 117.993L128.496 118.002L128.487 118.011L129.196 118.716ZM129.369 118.551L130.06 119.274L130.778 118.587L130.095 117.864L129.369 118.551ZM129.364 118.546L128.655 117.841L127.972 118.528L128.638 119.233L129.364 118.546ZM129.79 118.118L130.499 118.823L131.2 118.118L130.499 117.413L129.79 118.118ZM28.2146 15.9805V14.9805H25.8098L27.5055 16.6857L28.2146 15.9805ZM109.577 15.9805V16.9805H110.577V15.9805H109.577ZM109.577 14.9805L110.577 14.9805L110.577 14.9805L109.577 14.9805ZM109.577 2.78894L110.577 2.78894L110.577 2.78893L109.577 2.78894ZM109.577 2.28894L108.577 2.28893L108.577 2.28896L109.577 2.28894ZM109.577 1.78894L110.577 1.78896L110.577 0.78894H109.577V1.78894ZM128.377 118.115L129.068 118.838L129.805 118.133L129.086 117.41L128.377 118.115ZM26.8043 15.9805L27.5133 15.2754L27.2201 14.9805H26.8043V15.9805ZM26.3835 15.9805H25.3835V16.9805H26.3835V15.9805ZM26.3835 14.9805V13.9805H25.3835V14.9805H26.3835ZM26.9573 14.9805V15.9805H27.3731L27.6664 15.6857L26.9573 14.9805ZM27.0887 14.8484L27.7978 14.1432L27.0887 13.4303L26.3796 14.1432L27.0887 14.8484ZM27.2201 14.9805L26.511 15.6857L26.8043 15.9805H27.2201V14.9805ZM108.577 14.9805V15.9805H109.577V14.9805H108.577ZM108.577 2.78894H109.577V1.78894H108.577V2.78894ZM2.78601 2.78894V1.78894H1.78601V2.78894H2.78601ZM2.78601 109.173H1.78601V110.173H2.78601V109.173ZM14.9085 109.173V110.173H15.9085L15.9085 109.173L14.9085 109.173ZM14.9085 26.519L14.1995 25.8139L13.9085 26.1064L13.9085 26.519L14.9085 26.519ZM15.6137 25.81L16.3227 25.1048L15.6137 24.3918L14.9046 25.1048L15.6137 25.81ZM117.628 128.389L116.919 129.094L117.61 129.789L118.319 129.112L117.628 128.389ZM1.78601 2.78894H2.28601V0.78894H1.78601V2.78894ZM2.78601 2.28894V1.78894H0.786011V2.28894H2.78601ZM2.78601 110.174V2.28894H0.786011V110.174H2.78601ZM2.78601 109.174H1.78601V111.174H2.78601V109.174ZM1.78601 110.173V110.174H3.78601V110.173H1.78601ZM14.9085 109.173H2.78601V111.173H14.9085V109.173ZM15.9085 109.173L14.9085 109.173L14.9085 111.173L15.9085 111.173L15.9085 109.173ZM14.9085 27.5246L14.9085 110.173L16.9085 110.173L16.9085 27.5246L14.9085 27.5246ZM118.319 129.083L16.6176 26.8194L15.1995 28.2297L116.9 130.494L118.319 129.083ZM118.317 129.082L118.317 129.082L116.902 130.496L116.903 130.496L118.317 129.082ZM128.391 118.102L116.919 129.066L118.301 130.512L129.773 119.547L128.391 118.102ZM129.794 118.122L129.791 118.119L128.373 119.53L128.376 119.533L129.794 118.122ZM128.487 118.011L128.376 118.122L129.794 119.533L129.905 119.421L128.487 118.011ZM128.678 117.828L128.505 117.993L129.887 119.439L130.06 119.274L128.678 117.828ZM128.638 119.233L128.642 119.237L130.095 117.864L130.091 117.859L128.638 119.233ZM129.081 117.413L128.655 117.841L130.073 119.251L130.499 118.823L129.081 117.413ZM27.5055 16.6857L129.081 118.823L130.499 117.413L28.9236 15.2754L27.5055 16.6857ZM109.577 14.9805H28.2146V16.9805H109.577V14.9805ZM108.577 14.9805V15.9805H110.577V14.9805H108.577ZM108.577 2.78894L108.577 14.9805L110.577 14.9805L110.577 2.78894L108.577 2.78894ZM108.577 2.28896L108.577 2.78896L110.577 2.78893L110.577 2.28893L108.577 2.28896ZM108.577 1.78893L108.577 2.28893L110.577 2.28896L110.577 1.78896L108.577 1.78893ZM2.28601 2.78894H109.577V0.78894H2.28601V2.78894ZM129.086 117.41L27.5133 15.2754L26.0952 16.6857L127.668 118.82L129.086 117.41ZM26.8043 14.9805H26.3835V16.9805H26.8043V14.9805ZM27.3835 15.9805V15.5574H25.3835V15.9805H27.3835ZM27.3835 15.5574V14.9805H25.3835V15.5574H27.3835ZM26.3835 15.9805H26.9573V13.9805H26.3835V15.9805ZM27.6664 15.6857L27.7978 15.5535L26.3796 14.1432L26.2482 14.2754L27.6664 15.6857ZM26.3796 15.5535L26.511 15.6857L27.9292 14.2754L27.7978 14.1432L26.3796 15.5535ZM27.2201 15.9805H108.577V13.9805H27.2201V15.9805ZM109.577 14.9805V2.78894H107.577V14.9805H109.577ZM108.577 1.78894H2.78601V3.78894H108.577V1.78894ZM1.78601 2.78894V109.173H3.78601V2.78894H1.78601ZM2.78601 110.173H14.9085V108.173H2.78601V110.173ZM15.9085 109.173L15.9085 26.519L13.9085 26.519L13.9085 109.173L15.9085 109.173ZM15.6176 27.2242L16.3227 26.5151L14.9046 25.1048L14.1995 25.8139L15.6176 27.2242ZM14.9046 26.5151L116.919 129.094L118.337 127.684L16.3227 25.1048L14.9046 26.5151ZM118.319 129.112L129.068 118.838L127.686 117.392L116.937 127.666L118.319 129.112Z" fill="black"/>
</svg>
